<svg width="48" height="26" viewBox="0 0 48 26" fill="none" xmlns="http://www.w3.org/2000/svg">
<path d="M14.5495 25.9762C14.0528 25.9767 13.573 25.7962 13.1999 25.4684L0.699874 14.5309C0.480026 14.3384 0.30385 14.1012 0.183146 13.8351C0.0624431 13.569 0 13.2802 0 12.988C0 12.6957 0.0624431 12.4069 0.183146 12.1408C0.30385 11.8747 0.480026 11.6375 0.699874 11.445L13.1999 0.507484C13.6092 0.149286 14.1441 -0.0316271 14.6868 0.0045433C15.2296 0.0407136 15.7357 0.291005 16.0939 0.700355C16.4521 1.10971 16.633 1.64458 16.5969 2.18732C16.5607 2.73006 16.3104 3.2362 15.901 3.5944L5.16374 12.988L15.9001 22.3815C16.2143 22.6562 16.4372 23.0203 16.5391 23.425C16.6409 23.8298 16.6168 24.256 16.47 24.6467C16.3232 25.0374 16.0607 25.3741 15.7175 25.6116C15.3744 25.8492 14.9669 25.9764 14.5495 25.9762ZM33.2995 25.9762C32.882 25.9766 32.4744 25.8495 32.1311 25.6121C31.7877 25.3746 31.525 25.0379 31.3781 24.6472C31.2312 24.2564 31.207 23.8301 31.3089 23.4253C31.4107 23.0204 31.6336 22.6563 31.9479 22.3815L42.6852 12.988L31.9489 3.5944C31.5395 3.2362 31.2893 2.73006 31.2531 2.18732C31.2169 1.64458 31.3978 1.10971 31.756 0.700355C32.1142 0.291005 32.6204 0.0407137 33.1631 0.0045433C33.7058 -0.0316271 34.2407 0.149286 34.6501 0.507484L47.1501 11.445C47.3699 11.6375 47.5461 11.8747 47.6668 12.1408C47.7875 12.4069 47.8499 12.6957 47.8499 12.988C47.8499 13.2802 47.7875 13.569 47.6668 13.8351C47.5461 14.1012 47.3699 14.3384 47.1501 14.5309L34.6501 25.4684C34.2768 25.7966 33.7965 25.9771 33.2995 25.9762Z" fill="#10E4CC"/>
<path d="M24.5002 15.0038C25.8809 15.0059 27.0019 13.8883 27.004 12.5076C27.0061 11.1269 25.8885 10.0059 24.5078 10.0038C23.1271 10.0017 22.0061 11.1193 22.004 12.5C22.0019 13.8807 23.1195 15.0017 24.5002 15.0038Z" stroke="#10E4CC" stroke-width="7" stroke-linecap="round" stroke-linejoin="round"/>
</svg>
