<svg width="30" height="30" viewBox="0 0 30 30" fill="none" xmlns="http://www.w3.org/2000/svg">
<rect x="0.5" y="0.5" width="29" height="29" rx="9.5" fill="white" stroke="#FF3D00"/>
<g clip-path="url(#clip0_239_197)">
<path d="M25.8622 10.1027C25.8622 8.25701 24.5046 6.77225 22.827 6.77225C20.5548 6.66602 18.2374 6.625 15.8691 6.625H15.1309C12.7684 6.625 10.4469 6.66602 8.17461 6.77266C6.50118 6.77266 5.14356 8.26562 5.14356 10.1113C5.04102 11.5711 4.99754 13.0312 5.00001 14.4914C4.9959 15.9515 5.04239 17.4131 5.13946 18.876C5.13946 20.7217 6.49708 22.2187 8.17051 22.2187C10.5576 22.3295 13.0063 22.3787 15.4959 22.3746C17.9897 22.3828 20.4314 22.3308 22.8213 22.2187C24.4988 22.2187 25.8565 20.7217 25.8565 18.876C25.9549 17.4117 26 15.9515 25.9959 14.4873C26.0052 13.0271 25.9606 11.5656 25.8622 10.1027ZM13.4902 18.515V10.4554L19.4375 14.4832L13.4902 18.515Z" fill="#FF3D00"/>
</g>
<defs>
<clipPath id="clip0_239_197">
<rect width="21" height="21" fill="white" transform="translate(5 4)"/>
</clipPath>
</defs>
</svg>
