<svg width="30" height="30" viewBox="0 0 30 30" fill="none" xmlns="http://www.w3.org/2000/svg">
<rect x="0.5" y="0.5" width="29" height="29" rx="9.5" fill="white" stroke="url(#paint0_linear_239_190)"/>
<path d="M19.328 7.84361C20.3424 7.84664 21.3144 8.25096 22.0317 8.96827C22.749 9.68558 23.1534 10.6576 23.1564 11.672V19.328C23.1534 20.3424 22.749 21.3144 22.0317 22.0317C21.3144 22.749 20.3424 23.1534 19.328 23.1564H11.672C10.6576 23.1534 9.68558 22.749 8.96827 22.0317C8.25096 21.3144 7.84664 20.3424 7.84361 19.328V11.672C7.84664 10.6576 8.25096 9.68558 8.96827 8.96827C9.68558 8.25096 10.6576 7.84664 11.672 7.84361H19.328ZM19.328 6.3125H11.672C8.72422 6.3125 6.3125 8.72422 6.3125 11.672V19.328C6.3125 22.2758 8.72422 24.6875 11.672 24.6875H19.328C22.2758 24.6875 24.6875 22.2758 24.6875 19.328V11.672C24.6875 8.72422 22.2758 6.3125 19.328 6.3125Z" fill="url(#paint1_linear_239_190)"/>
<path d="M20.4764 11.6719C20.2493 11.6719 20.0273 11.6045 19.8384 11.4783C19.6495 11.3521 19.5023 11.1728 19.4154 10.9629C19.3285 10.7531 19.3057 10.5222 19.3501 10.2994C19.3944 10.0766 19.5037 9.87198 19.6644 9.71137C19.825 9.55076 20.0296 9.44138 20.2524 9.39707C20.4752 9.35275 20.7061 9.3755 20.9159 9.46242C21.1258 9.54934 21.3051 9.69654 21.4313 9.8854C21.5575 10.0743 21.6249 10.2963 21.6249 10.5234C21.6252 10.6743 21.5957 10.8238 21.5381 10.9633C21.4805 11.1028 21.3959 11.2295 21.2892 11.3362C21.1825 11.4429 21.0558 11.5275 20.9163 11.5851C20.7768 11.6427 20.6273 11.6722 20.4764 11.6719ZM15.5 12.4372C16.1057 12.4372 16.6979 12.6168 17.2015 12.9534C17.7052 13.2899 18.0977 13.7682 18.3295 14.3278C18.5613 14.8875 18.622 15.5033 18.5038 16.0974C18.3856 16.6914 18.0939 17.2372 17.6656 17.6655C17.2373 18.0938 16.6916 18.3855 16.0975 18.5037C15.5034 18.6218 14.8876 18.5612 14.328 18.3294C13.7684 18.0976 13.29 17.705 12.9535 17.2014C12.617 16.6977 12.4374 16.1056 12.4374 15.4999C12.4382 14.6879 12.7612 13.9094 13.3354 13.3352C13.9095 12.761 14.688 12.4381 15.5 12.4372ZM15.5 10.9061C14.5914 10.9061 13.7033 11.1755 12.9479 11.6803C12.1924 12.1851 11.6036 12.9025 11.2559 13.7419C10.9082 14.5813 10.8173 15.505 10.9945 16.3961C11.1718 17.2872 11.6093 18.1057 12.2517 18.7481C12.8942 19.3906 13.7127 19.8281 14.6038 20.0053C15.4949 20.1826 16.4186 20.0916 17.258 19.7439C18.0974 19.3962 18.8148 18.8075 19.3196 18.052C19.8243 17.2966 20.0938 16.4084 20.0938 15.4999C20.0938 14.2815 19.6098 13.1131 18.7483 12.2516C17.8868 11.3901 16.7183 10.9061 15.5 10.9061Z" fill="url(#paint2_linear_239_190)"/>
<defs>
<linearGradient id="paint0_linear_239_190" x1="15" y1="0" x2="15" y2="30" gradientUnits="userSpaceOnUse">
<stop stop-color="#304FFE" stop-opacity="0.998219"/>
<stop offset="0.0260417" stop-color="#4928F4" stop-opacity="0.998219"/>
<stop offset="0.0572917" stop-color="#6200EA" stop-opacity="0.998219"/>
<stop offset="0.104167" stop-color="#673AB7" stop-opacity="0.998219"/>
<stop offset="0.171875" stop-color="#8E24AA" stop-opacity="0.998219"/>
<stop offset="0.239583" stop-color="#C2185B" stop-opacity="0.996883"/>
<stop offset="0.317708" stop-color="#D81B60" stop-opacity="0.995636"/>
<stop offset="0.380208" stop-color="#F50057" stop-opacity="0.994033"/>
<stop offset="0.473958" stop-color="#FF1744" stop-opacity="0.992341"/>
<stop offset="0.520833" stop-color="#FF5722" stop-opacity="0.986596"/>
<stop offset="0.59375" stop-color="#FF6F00" stop-opacity="0.980578"/>
<stop offset="0.703125" stop-color="#FF9800" stop-opacity="0.960747"/>
<stop offset="0.765625" stop-color="#FFC107" stop-opacity="0.91028"/>
<stop offset="0.807292" stop-color="#FFD54F" stop-opacity="0.885666"/>
<stop offset="0.9375" stop-color="#FFDB6B" stop-opacity="0.874105"/>
<stop offset="0.96875" stop-color="#FFE082" stop-opacity="0.864583"/>
<stop offset="1" stop-color="#FFECB3" stop-opacity="0"/>
</linearGradient>
<linearGradient id="paint1_linear_239_190" x1="15.5" y1="6.3125" x2="15.5" y2="24.6875" gradientUnits="userSpaceOnUse">
<stop stop-color="#304FFE" stop-opacity="0.998219"/>
<stop offset="0.0260417" stop-color="#4928F4" stop-opacity="0.998219"/>
<stop offset="0.0572917" stop-color="#6200EA" stop-opacity="0.998219"/>
<stop offset="0.104167" stop-color="#673AB7" stop-opacity="0.998219"/>
<stop offset="0.171875" stop-color="#8E24AA" stop-opacity="0.998219"/>
<stop offset="0.239583" stop-color="#C2185B" stop-opacity="0.996883"/>
<stop offset="0.317708" stop-color="#D81B60" stop-opacity="0.995636"/>
<stop offset="0.380208" stop-color="#F50057" stop-opacity="0.994033"/>
<stop offset="0.473958" stop-color="#FF1744" stop-opacity="0.992341"/>
<stop offset="0.520833" stop-color="#FF5722" stop-opacity="0.986596"/>
<stop offset="0.59375" stop-color="#FF6F00" stop-opacity="0.980578"/>
<stop offset="0.703125" stop-color="#FF9800" stop-opacity="0.960747"/>
<stop offset="0.765625" stop-color="#FFC107" stop-opacity="0.91028"/>
<stop offset="0.807292" stop-color="#FFD54F" stop-opacity="0.885666"/>
<stop offset="0.9375" stop-color="#FFDB6B" stop-opacity="0.874105"/>
<stop offset="0.96875" stop-color="#FFE082" stop-opacity="0.864583"/>
<stop offset="1" stop-color="#FFECB3" stop-opacity="0"/>
</linearGradient>
<linearGradient id="paint2_linear_239_190" x1="16.2656" y1="9.375" x2="16.2656" y2="20.0936" gradientUnits="userSpaceOnUse">
<stop stop-color="#304FFE" stop-opacity="0.998219"/>
<stop offset="0.0260417" stop-color="#4928F4" stop-opacity="0.998219"/>
<stop offset="0.0572917" stop-color="#6200EA" stop-opacity="0.998219"/>
<stop offset="0.104167" stop-color="#673AB7" stop-opacity="0.998219"/>
<stop offset="0.171875" stop-color="#8E24AA" stop-opacity="0.998219"/>
<stop offset="0.239583" stop-color="#C2185B" stop-opacity="0.996883"/>
<stop offset="0.317708" stop-color="#D81B60" stop-opacity="0.995636"/>
<stop offset="0.380208" stop-color="#F50057" stop-opacity="0.994033"/>
<stop offset="0.473958" stop-color="#FF1744" stop-opacity="0.992341"/>
<stop offset="0.520833" stop-color="#FF5722" stop-opacity="0.986596"/>
<stop offset="0.59375" stop-color="#FF6F00" stop-opacity="0.980578"/>
<stop offset="0.703125" stop-color="#FF9800" stop-opacity="0.960747"/>
<stop offset="0.765625" stop-color="#FFC107" stop-opacity="0.91028"/>
<stop offset="0.807292" stop-color="#FFD54F" stop-opacity="0.885666"/>
<stop offset="0.9375" stop-color="#FFDB6B" stop-opacity="0.874105"/>
<stop offset="0.96875" stop-color="#FFE082" stop-opacity="0.864583"/>
<stop offset="1" stop-color="#FFECB3" stop-opacity="0"/>
</linearGradient>
</defs>
</svg>
