<svg width="30" height="30" viewBox="0 0 30 30" fill="none" xmlns="http://www.w3.org/2000/svg">
<rect x="0.5" y="0.5" width="29" height="29" rx="9.5" fill="white" stroke="#0E76A8"/>
<path d="M22.7179 5.8125H7.38258C6.54463 5.8125 5.8125 6.41543 5.8125 7.24354V22.6129C5.8125 23.4455 6.54463 24.1875 7.38258 24.1875H22.7134C23.5559 24.1875 24.1875 23.4406 24.1875 22.6129V7.24354C24.1924 6.41543 23.5559 5.8125 22.7179 5.8125ZM11.5083 21.129H8.87596V12.9443H11.5083V21.129ZM10.2832 11.6999H10.2643C9.42187 11.6999 8.87637 11.0728 8.87637 10.2877C8.87637 9.48832 9.43623 8.87596 10.2976 8.87596C11.1589 8.87596 11.6859 9.48381 11.7048 10.2877C11.7044 11.0728 11.1589 11.6999 10.2832 11.6999ZM21.129 21.129H18.4966V16.6538C18.4966 15.5816 18.1135 14.8491 17.1611 14.8491C16.4335 14.8491 16.0028 15.3413 15.8113 15.8207C15.7395 15.993 15.7202 16.2276 15.7202 16.4671V21.129H13.0879V12.9443H15.7202V14.0833C16.1033 13.5378 16.7017 12.7528 18.0942 12.7528C19.8222 12.7528 21.1294 13.8918 21.1294 16.3474L21.129 21.129Z" fill="#0E76A8"/>
</svg>
