<svg width="30" height="30" viewBox="0 0 30 30" fill="none" xmlns="http://www.w3.org/2000/svg">
<rect x="0.5" y="0.5" width="29" height="29" rx="9.5" stroke="#171515"/>
<g clip-path="url(#clip0_239_172)">
<g filter="url(#filter0_d_239_172)">
<path d="M14.7856 5.59814C9.71201 5.59814 5.59814 9.81865 5.59814 15.0194C5.59814 19.1825 8.23135 22.7099 11.8817 23.9567C11.9329 23.9679 11.9852 23.9734 12.0376 23.9731C12.378 23.9731 12.5093 23.7229 12.5093 23.5056C12.5093 23.28 12.5011 22.6894 12.497 21.9019C12.1931 21.9731 11.8822 22.0102 11.57 22.0126C9.80225 22.0126 9.40029 20.6386 9.40029 20.6386C8.98193 19.5517 8.379 19.2604 8.379 19.2604C7.5792 18.6985 8.3749 18.6821 8.43643 18.6821H8.44053C9.36338 18.7642 9.84736 19.6583 9.84736 19.6583C10.3067 20.4622 10.922 20.6878 11.4716 20.6878C11.835 20.6805 12.1928 20.5967 12.5216 20.4417C12.6036 19.8347 12.8415 19.4204 13.104 19.1825C11.0655 18.9446 8.92041 18.1366 8.92041 14.5272C8.92041 13.4978 9.27725 12.6569 9.86377 12.0007C9.76943 11.7628 9.45361 10.803 9.954 9.50693C10.0211 9.49087 10.0901 9.48397 10.1591 9.48643C10.4913 9.48643 11.2419 9.61357 12.4806 10.4749C13.9857 10.0538 15.5774 10.0538 17.0825 10.4749C18.3212 9.61357 19.0718 9.48643 19.404 9.48643C19.473 9.48397 19.542 9.49087 19.6091 9.50693C20.1095 10.803 19.7937 11.7628 19.6993 12.0007C20.2858 12.661 20.6427 13.5019 20.6427 14.5272C20.6427 18.1448 18.4935 18.9405 16.4468 19.1743C16.7749 19.4655 17.0702 20.0397 17.0702 20.9175C17.0702 22.1767 17.0579 23.1938 17.0579 23.5015C17.0579 23.7229 17.1851 23.9731 17.5255 23.9731C17.5806 23.9734 17.6356 23.9679 17.6895 23.9567C21.344 22.7099 23.9731 19.1784 23.9731 15.0194C23.9731 9.81865 19.8593 5.59814 14.7856 5.59814Z" fill="#171515"/>
</g>
</g>
<defs>
<filter id="filter0_d_239_172" x="3.59814" y="3.59814" width="22.375" height="22.375" filterUnits="userSpaceOnUse" color-interpolation-filters="sRGB">
<feFlood flood-opacity="0" result="BackgroundImageFix"/>
<feColorMatrix in="SourceAlpha" type="matrix" values="0 0 0 0 0 0 0 0 0 0 0 0 0 0 0 0 0 0 127 0" result="hardAlpha"/>
<feOffset/>
<feGaussianBlur stdDeviation="1"/>
<feComposite in2="hardAlpha" operator="out"/>
<feColorMatrix type="matrix" values="0 0 0 0 1 0 0 0 0 1 0 0 0 0 1 0 0 0 1 0"/>
<feBlend mode="normal" in2="BackgroundImageFix" result="effect1_dropShadow_239_172"/>
<feBlend mode="normal" in="SourceGraphic" in2="effect1_dropShadow_239_172" result="shape"/>
</filter>
<clipPath id="clip0_239_172">
<rect width="21" height="21" fill="white" transform="translate(4.28564 4.28564)"/>
</clipPath>
</defs>
</svg>
